<?xml version="1.0" encoding="UTF-8" standalone="no"?>
<!-- Created with Inkscape (http://www.inkscape.org/) -->

<svg
   xmlns:dc="http://purl.org/dc/elements/1.1/"
   xmlns:cc="http://creativecommons.org/ns#"
   xmlns:rdf="http://www.w3.org/1999/02/22-rdf-syntax-ns#"
   xmlns:svg="http://www.w3.org/2000/svg"
   xmlns="http://www.w3.org/2000/svg"
   xmlns:xlink="http://www.w3.org/1999/xlink"
   xmlns:sodipodi="http://sodipodi.sourceforge.net/DTD/sodipodi-0.dtd"
   xmlns:inkscape="http://www.inkscape.org/namespaces/inkscape"
   width="150"
   height="150"
   viewBox="0 0 150 150"
   id="svg3374"
   version="1.1"
   inkscape:version="0.91 r13725"
   sodipodi:docname="htmlundcss.svg"
   inkscape:export-filename="/home/heiko/Projekte/openscreencast/openscreencast_gitbooks/books/images/htmlundcss.png"
   inkscape:export-xdpi="90"
   inkscape:export-ydpi="90">
  <defs
     id="defs3376">
    <radialGradient
       cx="62.27"
       cy="-11.583"
       r="58.799999"
       id="I"
       xlink:href="#E"
       gradientUnits="userSpaceOnUse"
       gradientTransform="matrix(1.0486452,-0.0041661,0.00224219,0.56437725,7.9221718,939.98477)" />
    <linearGradient
       id="E">
      <stop
         id="X"
         stop-color="#fff" />
      <stop
         id="Y"
         offset="1"
         stop-color="#fff"
         stop-opacity="0" />
    </linearGradient>
    <filter
       style="color-interpolation-filters:sRGB"
       id="F">
      <feGaussianBlur
         stdDeviation="0.34594"
         id="Z" />
    </filter>
    <linearGradient
       gradientTransform="matrix(0.66952942,0,0,0.66952942,30.349505,933.06279)"
       y1="20.16"
       x2="0"
       y2="99.839996"
       id="G"
       xlink:href="#B"
       gradientUnits="userSpaceOnUse" />
    <linearGradient
       id="B">
      <stop
         id="R"
         stop-color="#323232" />
      <stop
         id="S"
         offset="1"
         stop-color="#121212" />
    </linearGradient>
    <linearGradient
       gradientTransform="matrix(0.66952942,0,0,0.66952942,30.349505,933.06279)"
       y1="13.764"
       x2="0"
       y2="113.23"
       id="H"
       xlink:href="#D"
       gradientUnits="userSpaceOnUse" />
    <linearGradient
       id="D">
      <stop
         id="V"
         stop-color="#bbb" />
      <stop
         id="W"
         offset="1"
         stop-color="#888" />
    </linearGradient>
  </defs>
  <sodipodi:namedview
     id="base"
     pagecolor="#ffffff"
     bordercolor="#666666"
     borderopacity="1.0"
     inkscape:pageopacity="0.0"
     inkscape:pageshadow="2"
     inkscape:zoom="2.1649824"
     inkscape:cx="10.05063"
     inkscape:cy="83.421901"
     inkscape:document-units="px"
     inkscape:current-layer="layer1"
     showgrid="false"
     units="px"
     inkscape:window-width="993"
     inkscape:window-height="679"
     inkscape:window-x="0"
     inkscape:window-y="31"
     inkscape:window-maximized="0" />
  <metadata
     id="metadata3379">
    <rdf:RDF>
      <cc:Work
         rdf:about="">
        <dc:format>image/svg+xml</dc:format>
        <dc:type
           rdf:resource="http://purl.org/dc/dcmitype/StillImage" />
        <dc:title />
      </cc:Work>
    </rdf:RDF>
  </metadata>
  <g
     inkscape:label="Ebene 1"
     inkscape:groupmode="layer"
     id="layer1"
     transform="translate(0,-902.36216)">
    <ellipse
       style="fill:#ffe4c4;fill-opacity:1;fill-rule:nonzero;stroke:none;stroke-width:1.0068078;stroke-opacity:1"
       id="path3382"
       cx="75"
       cy="977.42047"
       rx="73.5"
       ry="73.441704" />
    <g
       id="g3401"
       transform="matrix(0.19552569,0,0,0.19552569,30.000109,929.55061)"
       style="fill:#5599ff">
      <g
         id="g3357"
         style="fill:#5599ff">
        <g
           id="g3359"
           style="fill:#5599ff">
          <path
             id="path3361"
             d="M 230.149,120.939 65.986,256.274 c 0,0.191 -0.048,0.472 -0.144,0.855 -0.094,0.38 -0.144,0.656 -0.144,0.852 l 0,137.041 c 0,4.948 1.809,9.236 5.426,12.847 3.616,3.613 7.898,5.431 12.847,5.431 l 109.63,0 0,-109.636 73.097,0 0,109.64 109.629,0 c 4.948,0 9.236,-1.814 12.847,-5.435 3.617,-3.607 5.432,-7.898 5.432,-12.847 l 0,-137.041 c 0,-0.76 -0.104,-1.334 -0.288,-1.707 L 230.149,120.939 Z"
             inkscape:connector-curvature="0"
             style="fill:#5599ff" />
          <path
             id="path3363"
             d="m 457.122,225.438 -62.522,-51.962 0,-116.487 c 0,-2.663 -0.856,-4.853 -2.574,-6.567 -1.704,-1.712 -3.894,-2.568 -6.563,-2.568 l -54.816,0 c -2.666,0 -4.855,0.856 -6.57,2.568 -1.711,1.714 -2.566,3.905 -2.566,6.567 l 0,55.673 -69.662,-58.245 c -6.084,-4.949 -13.318,-7.423 -21.694,-7.423 -8.375,0 -15.608,2.474 -21.698,7.423 L 3.172,225.438 c -1.903,1.52 -2.946,3.566 -3.14,6.136 -0.193,2.568 0.472,4.811 1.997,6.713 l 17.701,21.128 c 1.525,1.712 3.521,2.759 5.996,3.142 2.285,0.192 4.57,-0.476 6.855,-1.998 L 230.149,95.817 427.719,260.558 c 1.526,1.328 3.521,1.991 5.996,1.991 l 0.858,0 c 2.471,-0.376 4.463,-1.43 5.996,-3.138 l 17.703,-21.125 c 1.522,-1.906 2.189,-4.145 1.991,-6.716 -0.195,-2.563 -1.242,-4.609 -3.141,-6.132 z"
             inkscape:connector-curvature="0"
             style="fill:#5599ff" />
        </g>
      </g>
      <g
         id="g3365"
         style="fill:#5599ff" />
      <g
         id="g3367"
         style="fill:#5599ff" />
      <g
         id="g3369"
         style="fill:#5599ff" />
      <g
         id="g3371"
         style="fill:#5599ff" />
      <g
         id="g3373"
         style="fill:#5599ff" />
      <g
         id="g3375"
         style="fill:#5599ff" />
      <g
         id="g3377"
         style="fill:#5599ff" />
      <g
         id="g3379"
         style="fill:#5599ff" />
      <g
         id="g3381"
         style="fill:#5599ff" />
      <g
         id="g3383"
         style="fill:#5599ff" />
      <g
         id="g3385"
         style="fill:#5599ff" />
      <g
         id="g3387"
         style="fill:#5599ff" />
      <g
         id="g3389"
         style="fill:#5599ff" />
      <g
         id="g3391"
         style="fill:#5599ff" />
      <g
         id="g3393"
         style="fill:#5599ff" />
    </g>
  </g>
</svg>
