<?xml version="1.0" encoding="UTF-8" standalone="no"?>
<!-- Created with Inkscape (http://www.inkscape.org/) -->

<svg
   xmlns:dc="http://purl.org/dc/elements/1.1/"
   xmlns:cc="http://creativecommons.org/ns#"
   xmlns:rdf="http://www.w3.org/1999/02/22-rdf-syntax-ns#"
   xmlns:svg="http://www.w3.org/2000/svg"
   xmlns="http://www.w3.org/2000/svg"
   xmlns:xlink="http://www.w3.org/1999/xlink"
   xmlns:sodipodi="http://sodipodi.sourceforge.net/DTD/sodipodi-0.dtd"
   xmlns:inkscape="http://www.inkscape.org/namespaces/inkscape"
   width="150"
   height="150"
   viewBox="0 0 150 150"
   id="svg3374"
   version="1.1"
   inkscape:version="0.91 r13725"
   sodipodi:docname="python.svg"
   inkscape:export-filename="/home/heiko/Projekte/openscreencast/openscreencast_gitbooks/books/images/python.png"
   inkscape:export-xdpi="90"
   inkscape:export-ydpi="90">
  <defs
     id="defs3376">
    <radialGradient
       cx="62.27"
       cy="-11.583"
       r="58.799999"
       id="I"
       xlink:href="#E"
       gradientUnits="userSpaceOnUse"
       gradientTransform="matrix(1.0486452,-0.0041661,0.00224219,0.56437725,7.9221718,939.98477)" />
    <linearGradient
       id="E">
      <stop
         id="X"
         stop-color="#fff" />
      <stop
         id="Y"
         offset="1"
         stop-color="#fff"
         stop-opacity="0" />
    </linearGradient>
    <filter
       style="color-interpolation-filters:sRGB"
       id="F">
      <feGaussianBlur
         stdDeviation="0.34594"
         id="Z" />
    </filter>
    <linearGradient
       gradientTransform="matrix(0.66952942,0,0,0.66952942,30.349505,933.06279)"
       y1="20.16"
       x2="0"
       y2="99.839996"
       id="G"
       xlink:href="#B"
       gradientUnits="userSpaceOnUse" />
    <linearGradient
       id="B">
      <stop
         id="R"
         stop-color="#323232" />
      <stop
         id="S"
         offset="1"
         stop-color="#121212" />
    </linearGradient>
    <linearGradient
       gradientTransform="matrix(0.66952942,0,0,0.66952942,30.349505,933.06279)"
       y1="13.764"
       x2="0"
       y2="113.23"
       id="H"
       xlink:href="#D"
       gradientUnits="userSpaceOnUse" />
    <linearGradient
       id="D">
      <stop
         id="V"
         stop-color="#bbb" />
      <stop
         id="W"
         offset="1"
         stop-color="#888" />
    </linearGradient>
  </defs>
  <sodipodi:namedview
     id="base"
     pagecolor="#ffffff"
     bordercolor="#666666"
     borderopacity="1.0"
     inkscape:pageopacity="0.0"
     inkscape:pageshadow="2"
     inkscape:zoom="2.1649824"
     inkscape:cx="94.430787"
     inkscape:cy="83.421901"
     inkscape:document-units="px"
     inkscape:current-layer="layer1"
     showgrid="false"
     units="px"
     inkscape:window-width="989"
     inkscape:window-height="679"
     inkscape:window-x="0"
     inkscape:window-y="31"
     inkscape:window-maximized="0" />
  <metadata
     id="metadata3379">
    <rdf:RDF>
      <cc:Work
         rdf:about="">
        <dc:format>image/svg+xml</dc:format>
        <dc:type
           rdf:resource="http://purl.org/dc/dcmitype/StillImage" />
        <dc:title />
      </cc:Work>
    </rdf:RDF>
  </metadata>
  <g
     inkscape:label="Ebene 1"
     inkscape:groupmode="layer"
     id="layer1"
     transform="translate(0,-902.36216)">
    <ellipse
       style="fill:#90ee90;fill-opacity:1;fill-rule:nonzero;stroke:none;stroke-width:1.0068078;stroke-opacity:1"
       id="path3382"
       cx="75"
       cy="977.42047"
       rx="73.5"
       ry="73.441704" />
    <path
       inkscape:connector-curvature="0"
       style="fill:#555555"
       d="m 36.479885,940.74145 c -2.339001,0 -4.310096,1.93409 -4.310096,4.28917 l 0,61.09448 c 0,2.3551 1.971095,4.2892 4.310096,4.2892 l 73.438995,0 c 2.33901,0 4.3101,-1.9341 4.3101,-4.2892 l 0,-61.09448 c 0,-2.35508 -1.97109,-4.28917 -4.3101,-4.28917 l -73.438995,0 z"
       id="2" />
    <rect
       style="fill:url(#H)"
       width="78.944214"
       height="66.598091"
       x="33.72393"
       y="942.2782"
       id="3"
       rx="2.7450705" />
    <rect
       width="70.889778"
       height="53.348103"
       x="37.485348"
       y="946.29065"
       id="4" />
    <rect
       style="fill:#dddddd"
       width="70.889778"
       height="53.348103"
       x="37.954025"
       y="946.75934"
       id="5" />
    <rect
       style="fill:url(#G)"
       width="70.889778"
       height="53.348103"
       x="37.754501"
       y="946.56049"
       id="6" />
    <path
       inkscape:connector-curvature="0"
       style="fill:#eeeeee"
       d="m 44.409597,949.69298 0,0.89968 c -0.439051,0.0179 -0.841672,0.0688 -1.213522,0.16738 -0.367365,0.0986 -0.693639,0.24674 -0.962449,0.43938 -0.264323,0.19265 -0.458915,0.43662 -0.606761,0.73229 -0.147838,0.29122 -0.23015,0.63846 -0.23015,1.04615 0,0.46593 0.08979,0.85807 0.251073,1.17168 0.161283,0.30913 0.36784,0.56806 0.627684,0.77414 0.26433,0.20161 0.563677,0.36027 0.89968,0.48122 0.33601,0.11649 0.67577,0.21228 1.025217,0.29292 0.01794,0 0.05089,0.007 0.104614,0.0209 0.05376,0.009 0.09117,0.012 0.104614,0.0209 l 0,2.63627 c -0.273289,-0.0269 -0.502288,-0.0867 -0.690452,-0.16738 -0.183686,-0.0851 -0.339338,-0.18392 -0.460302,-0.31384 -0.120963,-0.12993 -0.221239,-0.28558 -0.292919,-0.46031 -0.0672,-0.1792 -0.110619,-0.37079 -0.146459,-0.58584 l -1.71567,0.31385 c 0.08064,0.40768 0.194405,0.76989 0.355688,1.08798 0.165769,0.31361 0.384283,0.57554 0.648606,0.79507 0.26881,0.21952 0.58612,0.38119 0.962449,0.50215 0.380809,0.12095 0.828329,0.19131 1.339059,0.20923 l 0,1.17167 0.732298,0 0,-1.1926 c 0.564493,-0.0224 1.056906,-0.0793 1.464595,-0.20923 0.407684,-0.13439 0.744444,-0.31998 1.004295,-0.54399 0.264323,-0.22848 0.460388,-0.50686 0.585837,-0.81599 0.125437,-0.3136 0.188299,-0.64441 0.188306,-1.02522 -7e-6,-0.49728 -0.0928,-0.91188 -0.271996,-1.23444 -0.174728,-0.32705 -0.42017,-0.58898 -0.711376,-0.79507 -0.286732,-0.20608 -0.611527,-0.38118 -0.983371,-0.50214 -0.367371,-0.12096 -0.744544,-0.22424 -1.129831,-0.31384 -0.02691,-0.009 -0.05684,-0.0209 -0.08369,-0.0209 -0.02243,0 -0.04037,0.009 -0.06273,0 l 0,-2.36428 c 0.358405,0.0492 0.644268,0.18249 0.836912,0.39753 0.197122,0.21057 0.330325,0.50992 0.397532,0.89968 l 1.757516,-0.272 c -0.09409,-0.37632 -0.212328,-0.70111 -0.355688,-0.98337 -0.143367,-0.28672 -0.331953,-0.51873 -0.564915,-0.71138 -0.23297,-0.19711 -0.500909,-0.35277 -0.836913,-0.4603 -0.336009,-0.10751 -0.755075,-0.17037 -1.234444,-0.1883 l 0,-0.89968 -0.732298,0 z m 9.185107,0 0,11.23554 7.155596,0 0,-11.23554 -7.155596,0 z m -9.185107,2.17597 0,2.23873 c -0.179207,-0.0582 -0.349822,-0.1136 -0.502147,-0.16738 -0.152325,-0.0582 -0.285527,-0.12858 -0.397533,-0.20922 -0.111999,-0.0807 -0.188352,-0.17196 -0.251074,-0.29292 -0.06273,-0.12544 -0.104614,-0.28858 -0.104614,-0.48123 -6e-6,-0.13439 0.02243,-0.27656 0.06273,-0.39753 0.04031,-0.12543 0.110667,-0.21976 0.209228,-0.31384 0.09856,-0.0986 0.219807,-0.18835 0.37661,-0.25107 0.161283,-0.0628 0.369313,-0.10761 0.606761,-0.12554 z m 0.732298,4.0381 c 0.206081,0.0582 0.406632,0.10914 0.585838,0.16738 0.183685,0.0538 0.325894,0.12411 0.460302,0.20923 0.134401,0.0851 0.258598,0.19589 0.334764,0.33476 0.07616,0.1344 0.104614,0.32447 0.104614,0.544 0,0.39425 -0.137688,0.68611 -0.397533,0.87876 -0.255365,0.19264 -0.613095,0.3034 -1.087985,0.33476 l 0,-2.46889 z"
       id="7" />
    <path
       inkscape:connector-curvature="0"
       style="fill:#eeeeee;filter:url(#F)"
       d="m 43.374794,932.40681 0,1.34375 c -0.65576,0.0268 -1.25711,0.1028 -1.8125,0.25 -0.54869,0.14722 -1.03601,0.36853 -1.4375,0.65625 -0.39479,0.28774 -0.68543,0.65213 -0.90625,1.09375 -0.22081,0.43495 -0.34375,0.95359 -0.34375,1.5625 0,0.69591 0.13411,1.28161 0.375,1.75 0.24089,0.46171 0.5494,0.84845 0.9375,1.15625 0.3948,0.30112 0.8419,0.53809 1.34375,0.71875 0.50186,0.17398 1.00932,0.31706 1.53125,0.4375 0.0268,1e-5 0.076,0.0112 0.15625,0.0312 0.0803,0.0134 0.13617,0.0179 0.15625,0.0312 l 0,3.9375 c -0.40818,-0.0402 -0.75021,-0.12955 -1.03125,-0.25 -0.27435,-0.12714 -0.50683,-0.2747 -0.6875,-0.46875 -0.18067,-0.19405 -0.33044,-0.42653 -0.4375,-0.6875 -0.10037,-0.26766 -0.16522,-0.55381 -0.21875,-0.875 l -2.5625,0.46875 c 0.12045,0.60892 0.29036,1.14991 0.53125,1.625 0.24759,0.4684 0.57396,0.85962 0.96875,1.1875 0.40149,0.32788 0.87542,0.56933 1.4375,0.75 0.56877,0.18066 1.23718,0.28574 2,0.3125 l 0,1.75 1.09375,0 0,-1.78125 c 0.84312,-0.0335 1.57858,-0.11845 2.1875,-0.3125 0.60891,-0.20074 1.11189,-0.47793 1.5,-0.8125 0.39479,-0.34126 0.68763,-0.75704 0.875,-1.21875 0.18735,-0.4684 0.28124,-0.96248 0.28125,-1.53125 -1e-5,-0.74274 -0.1386,-1.36197 -0.40625,-1.84375 -0.26097,-0.48847 -0.62756,-0.87969 -1.0625,-1.1875 -0.42826,-0.3078 -0.91337,-0.56933 -1.46875,-0.75 -0.5487,-0.18066 -1.11204,-0.33492 -1.6875,-0.46875 -0.0402,-0.0134 -0.0849,-0.0312 -0.125,-0.0312 -0.0335,1e-5 -0.0603,0.0134 -0.0937,0 l 0,-3.53125 c 0.53531,0.0736 0.96227,0.27257 1.25,0.59375 0.29442,0.3145 0.49337,0.76161 0.59375,1.34375 l 2.625,-0.40625 c -0.14053,-0.56207 -0.31713,-1.04718 -0.53125,-1.46875 -0.21413,-0.42824 -0.4958,-0.77476 -0.84375,-1.0625 -0.34796,-0.29441 -0.74815,-0.5269 -1.25,-0.6875 -0.50186,-0.16058 -1.12777,-0.25447 -1.84375,-0.28125 l 0,-1.34375 -1.09375,0 z m 13.71875,0 0,16.78125 10.6875,0 0,-16.78125 -10.6875,0 z m -13.71875,3.25 0,3.34375 c -0.26766,-0.087 -0.52249,-0.16969 -0.75,-0.25 -0.22751,-0.087 -0.42646,-0.19205 -0.59375,-0.3125 -0.16728,-0.12044 -0.28132,-0.25683 -0.375,-0.4375 -0.0937,-0.18735 -0.15625,-0.43101 -0.15625,-0.71875 -1e-5,-0.20073 0.0335,-0.41307 0.0937,-0.59375 0.0602,-0.18735 0.16529,-0.32822 0.3125,-0.46875 0.14721,-0.1472 0.3283,-0.28131 0.5625,-0.375 0.24089,-0.0937 0.5516,-0.16072 0.90625,-0.1875 z m 1.09375,6.03125 c 0.3078,0.087 0.60734,0.16302 0.875,0.25 0.27435,0.0803 0.48675,0.18537 0.6875,0.3125 0.20074,0.12714 0.38624,0.29257 0.5,0.5 0.11375,0.20074 0.15625,0.48462 0.15625,0.8125 0,0.58885 -0.20565,1.02477 -0.59375,1.3125 -0.38141,0.28773 -0.91571,0.45316 -1.625,0.5 l 0,-3.6875 z"
       id="8"
       transform="matrix(0.66952942,0,0,0.66952942,15.368896,325.41918)" />
    <path
       inkscape:connector-curvature="0"
       style="fill:none;stroke:url(#I);stroke-width:1.74077642"
       d="m 36.479885,943.25218 c -0.987677,0 -1.778438,0.79076 -1.778438,1.77844 l 0,61.09448 c 0,0.9877 0.78177,1.7576 1.778438,1.7576 l 73.438995,0 c 0.99667,0 1.77845,-0.7699 1.77845,-1.7576 l 0,-61.09448 c 0,-0.98768 -0.79076,-1.77844 -1.77845,-1.77844 l -73.438995,0 z"
       id="9" />
  </g>
</svg>
